<svg width="48" height="48" viewBox="0 0 48 48" fill="none" xmlns="http://www.w3.org/2000/svg">
<g filter="url(#filter0_b_1_144)">
<circle cx="24" cy="24" r="24" fill="#E3FFFF" fill-opacity="0.2"/>
</g>
<path d="M25.8517 32.8273C25.8836 32.8325 25.9158 32.8369 25.9481 32.8411C25.9158 32.837 25.8837 32.8324 25.8517 32.8273Z" fill="black"/>
<path d="M25.6984 32.7985C25.7177 32.8026 25.737 32.8066 25.7565 32.8104C25.7371 32.8066 25.7177 32.8026 25.6984 32.7985Z" fill="black"/>
<path d="M26.012 32.8497C26.0652 32.8556 26.1189 32.8602 26.1729 32.8634C26.1191 32.8603 26.0654 32.8555 26.012 32.8497Z" fill="black"/>
<path d="M26.5478 32.8633C26.4253 32.8703 26.3021 32.8703 26.1796 32.8633C26.2405 32.8669 26.3018 32.8691 26.3637 32.8691C26.4255 32.8691 26.4868 32.8669 26.5478 32.8633Z" fill="black"/>
<path d="M26.7792 32.8411C26.8114 32.8369 26.8436 32.8325 26.8755 32.8273C26.8435 32.8324 26.8114 32.837 26.7792 32.8411Z" fill="black"/>
<path d="M27.0296 32.7985C27.0103 32.8026 26.991 32.8066 26.9716 32.8104C26.9909 32.8066 27.0103 32.8027 27.0296 32.7985Z" fill="black"/>
<path d="M26.5543 32.8634C26.6083 32.8602 26.662 32.8556 26.7152 32.8497C26.6618 32.8555 26.6081 32.8603 26.5543 32.8634Z" fill="black"/>
<rect x="14" y="11" width="20" height="20" rx="1" fill="#3CBCCC"/>
<rect x="14" y="21.9301" width="20" height="14.186" rx="1" fill="#3CBCCC"/>
<path d="M31.7259 12.3951H16.1266C15.723 12.3951 15.3954 12.7227 15.3954 13.1264V33.8442C15.3954 34.2478 15.723 34.5754 16.1266 34.5754H24.17V33.1129V31.9839C23.5699 31.4068 23.195 30.5971 23.195 29.7006C23.195 27.9535 24.6165 26.532 26.3636 26.532C28.1108 26.532 29.5322 27.9535 29.5322 29.7006C29.5322 30.5971 29.1574 31.4068 28.5573 31.9839V33.1129V34.5754H31.7259C32.1295 34.5754 32.4571 34.2478 32.4571 33.8442V13.1264C32.4571 12.7227 32.1295 12.3951 31.7259 12.3951V12.3951ZM19.0515 18.0011H28.801C29.2046 18.0011 29.5322 18.3287 29.5322 18.7323C29.5322 19.136 29.2046 19.4636 28.801 19.4636H19.0515C18.6478 19.4636 18.3203 19.136 18.3203 18.7323C18.3203 18.3287 18.6478 18.0011 19.0515 18.0011ZM18.3203 16.295C18.3203 15.8913 18.6478 15.5637 19.0515 15.5637H21.9763C22.38 15.5637 22.7075 15.8913 22.7075 16.295C22.7075 16.6986 22.38 17.0262 21.9763 17.0262H19.0515C18.6478 17.0262 18.3203 16.6986 18.3203 16.295ZM19.0515 21.901C18.6478 21.901 18.3203 21.5734 18.3203 21.1697C18.3203 20.7661 18.6478 20.4385 19.0515 20.4385H28.801C29.2046 20.4385 29.5322 20.7661 29.5322 21.1697C29.5322 21.5734 29.2046 21.901 28.801 21.901H19.0515ZM28.801 24.3383H25.8762C25.4725 24.3383 25.1449 24.0108 25.1449 23.6071C25.1449 23.2035 25.4725 22.8759 25.8762 22.8759H28.801C29.2046 22.8759 29.5322 23.2035 29.5322 23.6071C29.5322 24.0108 29.2046 24.3383 28.801 24.3383Z" fill="#E0F7FA"/>
<path d="M26.7152 32.8496C26.737 32.8473 26.7585 32.8441 26.7802 32.8414C26.7586 32.8442 26.737 32.8473 26.7152 32.8496Z" fill="black"/>
<path d="M26.8756 32.8273C26.9078 32.8221 26.9397 32.8162 26.9716 32.8101C26.9398 32.8163 26.9078 32.822 26.8756 32.8273Z" fill="black"/>
<path d="M26.1729 32.8628C26.175 32.8629 26.1772 32.8632 26.1794 32.8633C26.1772 32.8631 26.1751 32.8629 26.1729 32.8628Z" fill="black"/>
<path d="M25.7556 32.8101C25.7875 32.8162 25.8194 32.8221 25.8516 32.8273C25.8194 32.822 25.7874 32.8162 25.7556 32.8101Z" fill="black"/>
<path d="M26.5477 32.8633C26.5499 32.8632 26.5521 32.8629 26.5543 32.8628C26.5521 32.8629 26.5499 32.8631 26.5477 32.8633Z" fill="black"/>
<path d="M25.948 32.8414C25.9697 32.8442 25.9912 32.8473 26.013 32.8496C25.9912 32.8473 25.9696 32.8442 25.948 32.8414Z" fill="black"/>
<path d="M19.0514 17.0266H21.9763C22.3801 17.0266 22.7075 16.6993 22.7075 16.2954C22.7075 15.8916 22.3801 15.5642 21.9763 15.5642H19.0514C18.6476 15.5642 18.3202 15.8916 18.3202 16.2954C18.3202 16.6993 18.6476 17.0266 19.0514 17.0266Z" fill="#80DEEA"/>
<path d="M19.0514 19.4637H28.801C29.2048 19.4637 29.5322 19.1363 29.5322 18.7324C29.5322 18.3286 29.2048 18.0012 28.801 18.0012H19.0514C18.6476 18.0012 18.3202 18.3286 18.3202 18.7324C18.3202 19.1363 18.6476 19.4637 19.0514 19.4637Z" fill="#80DEEA"/>
<path d="M29.5322 21.1698C29.5322 20.7659 29.2048 20.4385 28.801 20.4385H19.0514C18.6476 20.4385 18.3202 20.7659 18.3202 21.1698C18.3202 21.5736 18.6476 21.901 19.0514 21.901H28.801C29.2048 21.901 29.5322 21.5736 29.5322 21.1698Z" fill="#80DEEA"/>
<path d="M24.17 34.5757V33.1133V31.9843C24.0838 31.9013 24.0028 31.813 23.9263 31.7209V34.5757H24.17Z" fill="#B2EBF2"/>
<path d="M31.7259 12.3951H23.9263V18.0011H28.801C29.2047 18.0011 29.5323 18.3287 29.5323 18.7323C29.5323 19.136 29.2047 19.4636 28.801 19.4636H23.9263V20.4385H28.801C29.2047 20.4385 29.5323 20.7661 29.5323 21.1697C29.5323 21.5734 29.2047 21.901 28.801 21.901H23.9263V27.6785C24.508 26.9785 25.3846 26.532 26.3637 26.532C28.1108 26.532 29.5323 27.9535 29.5323 29.7006C29.5323 30.5971 29.1574 31.4068 28.5573 31.9839V33.1129V34.5754H31.7259C32.1295 34.5754 32.4571 34.2478 32.4571 33.8442V13.1264C32.4571 12.7227 32.1295 12.3951 31.7259 12.3951V12.3951ZM28.801 24.3383H25.8762C25.4725 24.3383 25.145 24.0108 25.145 23.6071C25.145 23.2035 25.4725 22.8759 25.8762 22.8759H28.801C29.2047 22.8759 29.5323 23.2035 29.5323 23.6071C29.5323 24.0108 29.2047 24.3383 28.801 24.3383Z" fill="#B2EBF2"/>
<path d="M28.801 18.0015H23.9263V19.4639H28.801C29.2049 19.4639 29.5323 19.1365 29.5323 18.7327C29.5323 18.3289 29.2049 18.0015 28.801 18.0015Z" fill="#4DD0E1"/>
<path d="M28.801 20.4388H23.9263V21.9012H28.801C29.2049 21.9012 29.5323 21.5738 29.5323 21.17C29.5323 20.7662 29.2049 20.4388 28.801 20.4388Z" fill="#4DD0E1"/>
<path d="M28.801 22.876H25.8761C25.4723 22.876 25.1449 23.2034 25.1449 23.6073C25.1449 24.0111 25.4723 24.3385 25.8761 24.3385H28.801C29.2048 24.3385 29.5322 24.0111 29.5322 23.6073C29.5322 23.2034 29.2048 22.876 28.801 22.876Z" fill="#4DD0E1"/>
<path d="M27.0285 32.7988C27.0095 32.8027 26.9905 32.8066 26.9715 32.8105C26.9398 32.8163 26.9076 32.8222 26.8754 32.8275C26.8437 32.8324 26.8116 32.8373 26.7794 32.8412C26.7579 32.8441 26.7365 32.847 26.715 32.8495C26.6619 32.8553 26.6083 32.8602 26.5542 32.8631C26.5522 32.8631 26.5498 32.8636 26.5478 32.8636C26.425 32.8704 26.3021 32.8704 26.1793 32.8636C26.1774 32.8636 26.1749 32.8631 26.173 32.8631C26.1189 32.8602 26.0652 32.8553 26.0121 32.8495C25.9907 32.847 25.9692 32.8441 25.9478 32.8412C25.9156 32.8373 25.8834 32.8324 25.8517 32.8275C25.8195 32.8222 25.7874 32.8163 25.7557 32.8105C25.7367 32.8066 25.7177 32.8027 25.6987 32.7988C25.4057 32.7359 25.1278 32.6325 24.8709 32.4946C24.614 32.3566 24.3786 32.1845 24.1699 31.9842V37.013C24.1699 37.2826 24.3181 37.5307 24.556 37.6579C24.7939 37.7847 25.0825 37.771 25.3067 37.6214L26.3636 36.917L27.4204 37.6214C27.5428 37.7028 27.6841 37.7442 27.826 37.7442C27.9445 37.7442 28.0629 37.7155 28.1711 37.6579C28.409 37.5307 28.5572 37.2826 28.5572 37.013V31.9842C28.1404 32.3849 27.6144 32.673 27.0285 32.7988Z" fill="#EF5350"/>
<path d="M30.7442 29.2563C30.7442 29.8653 30.6137 30.4438 30.3785 30.9694C30.1433 31.4944 29.8034 31.965 29.3846 32.3569C28.8034 32.9011 28.0699 33.2923 27.2528 33.4631C27.2263 33.4684 27.1998 33.4737 27.1733 33.479C27.1291 33.4869 27.0842 33.4949 27.0394 33.5021C26.9952 33.5088 26.9503 33.5154 26.9054 33.5207C26.8755 33.5247 26.8456 33.5286 26.8157 33.5319C26.7416 33.5399 26.6668 33.5465 26.5914 33.5505C26.5887 33.5505 26.5853 33.5511 26.5825 33.5511C26.4112 33.5604 26.2399 33.5604 26.0686 33.5511C26.0659 33.5511 26.0625 33.5505 26.0598 33.5505C25.9843 33.5465 25.9096 33.5399 25.8355 33.5319C25.8056 33.5286 25.7756 33.5247 25.7457 33.5207C25.7009 33.5154 25.656 33.5088 25.6118 33.5021C25.5669 33.4949 25.5221 33.4869 25.4779 33.479C25.4514 33.4737 25.4249 33.4684 25.3984 33.4631C24.9898 33.3777 24.6023 33.2374 24.2441 33.05C23.8858 32.8627 23.5575 32.629 23.2666 32.3569C22.4297 31.5732 21.907 30.4736 21.907 29.2563C21.907 26.8837 23.8892 24.9534 26.3256 24.9534C28.7619 24.9534 30.7442 26.8837 30.7442 29.2563Z" fill="#FDD835"/>
<path d="M27.0286 32.7988C27.0096 32.8027 26.9905 32.8066 26.9715 32.8105C26.9398 32.8163 26.9077 32.8222 26.8755 32.8275C26.8438 32.8324 26.8116 32.8373 26.7795 32.8412C26.758 32.8441 26.7366 32.847 26.7151 32.8495C26.662 32.8553 26.6084 32.8602 26.5543 32.8631C26.5523 32.8631 26.5499 32.8636 26.5479 32.8636C26.4865 32.867 26.4251 32.8687 26.3636 32.8687V36.917L27.4205 37.6214C27.5429 37.7028 27.6842 37.7442 27.8261 37.7442C27.9445 37.7442 28.063 37.7155 28.1712 37.6579C28.4091 37.5307 28.5573 37.2826 28.5573 37.013V31.9842C28.1405 32.3849 27.6145 32.673 27.0286 32.7988Z" fill="#D32F2F"/>
<path d="M26.3256 24.9534V33.5581C26.4112 33.5581 26.4969 33.5558 26.5825 33.5511C26.5852 33.5511 26.5886 33.5505 26.5914 33.5505C26.6668 33.5465 26.7416 33.5399 26.8157 33.5319C26.8456 33.5286 26.8755 33.5247 26.9054 33.5207C26.9503 33.5154 26.9952 33.5088 27.0393 33.5021C27.0842 33.4949 27.1291 33.4869 27.1733 33.479C27.1998 33.4737 27.2263 33.4684 27.2528 33.4631C28.0699 33.2923 28.8034 32.9011 29.3846 32.3569C29.8033 31.965 30.1432 31.4944 30.3784 30.9694C30.6136 30.4438 30.7442 29.8653 30.7442 29.2563C30.7442 26.8837 28.7619 24.9534 26.3256 24.9534Z" fill="#FBC02D"/>
<defs>
<filter id="filter0_b_1_144" x="-4" y="-4" width="56" height="56" filterUnits="userSpaceOnUse" color-interpolation-filters="sRGB">
<feFlood flood-opacity="0" result="BackgroundImageFix"/>
<feGaussianBlur in="BackgroundImageFix" stdDeviation="2"/>
<feComposite in2="SourceAlpha" operator="in" result="effect1_backgroundBlur_1_144"/>
<feBlend mode="normal" in="SourceGraphic" in2="effect1_backgroundBlur_1_144" result="shape"/>
</filter>
</defs>
</svg>
