<svg width="25" height="24" viewBox="0 0 25 24" fill="none" xmlns="http://www.w3.org/2000/svg">
<path d="M2.94831 0C4.54832 0 5.89567 1.34735 5.89567 2.94735C5.89567 4.63154 4.46408 5.93682 2.94831 5.8947C1.39043 5.93682 0.000961271 4.63154 0.000961271 2.94735C-0.0411553 1.30523 1.30624 0 2.94831 0Z" fill="#C2FFFF"/>
<path d="M4.5904 23.9999H1.22198C0.758837 23.9999 0.379883 23.621 0.379883 23.1578V8.42107C0.379883 7.95793 0.71672 7.57898 1.17986 7.57898H4.59035C5.05349 7.57898 5.43245 7.95793 5.43245 8.42107V23.2C5.43249 23.621 5.05354 23.9999 4.5904 23.9999Z" fill="#C2FFFF"/>
<path d="M24.3798 12.7155C24.3798 9.59969 22.064 7.15759 18.9483 7.15759H18.0641C16.3799 7.15759 14.7378 7.95757 13.8536 9.26285C13.5588 9.55757 13.4325 9.68392 13.4325 9.68392V7.99973C13.4325 7.83132 13.1798 7.57866 13.0114 7.57866H8.80089C8.63247 7.57866 8.37982 7.74708 8.37982 7.95762V23.6628C8.37982 23.8312 8.63247 23.9997 8.80089 23.9997H13.4324C13.6009 23.9997 13.8535 23.8312 13.8535 23.6628V14.5681C13.8535 13.0102 15.0324 11.7049 16.5903 11.6628C17.3903 11.6628 18.1061 11.9576 18.6535 12.5049C19.1587 13.0102 19.3693 13.726 19.3693 14.5259V23.5785C19.3693 23.747 19.6219 23.9996 19.7903 23.9996H24.0008C24.1693 23.9996 24.4219 23.747 24.4219 23.5785V12.7155H24.3798Z" fill="#C2FFFF"/>
</svg>
