<svg width="48" height="48" viewBox="0 0 48 48" fill="none" xmlns="http://www.w3.org/2000/svg">
<g filter="url(#filter0_b_1_114)">
<circle cx="24" cy="24" r="24" fill="#FFD5CC" fill-opacity="0.2"/>
</g>
<path d="M33.3456 37.9949C32.3076 36.9584 30.7553 34.8015 29.9512 32.9857L31.4506 32.3209C32.1682 33.9404 33.5939 35.9244 34.5054 36.8351L33.3456 37.9949Z" fill="#FF7F40"/>
<path d="M36.8395 34.4947C35.9008 33.556 33.8359 32.0926 32.2565 31.4094L32.9069 29.9036C34.7154 30.6862 36.9581 32.2937 37.9994 33.3349L36.8395 34.4947Z" fill="#F25A3C"/>
<path d="M14.4607 12.1207C14.9846 12.6453 16.0899 14.3433 16.5625 15.7074L18.1131 15.1707C17.5925 13.6682 16.367 11.709 15.6205 10.9609C14.3406 9.67936 12.2565 9.681 10.9798 10.9609C9.70145 12.24 9.65989 14.3209 10.9382 15.6008C11.6639 16.3249 13.5797 17.5151 15.1063 18.0638L15.6606 16.5196C14.3102 16.035 12.6058 14.9464 12.098 14.4403C11.4588 13.8011 11.5004 12.7598 12.1396 12.1207C12.7595 11.5023 13.8376 11.4991 14.4607 12.1207Z" fill="#FF7F40"/>
<path d="M14.4608 12.1203C14.9846 12.6449 16.09 14.3429 16.5625 15.707L18.1132 15.1704C17.5926 13.6678 16.3671 11.7086 15.6206 10.9606C14.3407 9.679 12.2566 9.68064 10.9799 10.9606L12.1396 12.1203C12.7596 11.502 13.8377 11.4988 14.4608 12.1203Z" fill="#F25A3C"/>
<path d="M36.3589 23.9427C36.3589 23.2811 36.093 22.6436 35.5676 22.0477C35.0293 21.4365 34.813 20.6268 34.9733 19.8291C35.1302 19.0521 35.0421 18.3665 34.7105 17.7898C34.379 17.2179 33.8295 16.799 33.0798 16.5459C32.3061 16.2848 31.7134 15.6929 31.4522 14.9208C31.1991 14.1678 30.7794 13.6184 30.2075 13.2892C29.6356 12.956 28.9516 12.8679 28.1715 13.0257C27.377 13.1811 26.5632 12.9697 25.9496 12.4306C24.7771 11.3957 23.3353 11.3966 22.1627 12.4298C21.5524 12.968 20.7514 13.1859 19.9408 13.0257C19.1591 12.8687 18.4767 12.9584 17.9048 13.2884C17.3329 13.6184 16.9132 14.1678 16.6601 14.9199C16.5222 15.3285 16.2868 15.6813 15.9856 15.9667C15.7171 16.2211 15.3972 16.4228 15.0326 16.5459C14.2829 16.799 13.7334 17.2179 13.4002 17.7922C13.0702 18.3665 12.9821 19.0521 13.1391 19.8266C13.2993 20.6268 13.083 21.4365 12.5448 22.0477C12.0194 22.6436 11.7534 23.2812 11.7534 23.9427C11.7534 24.6035 12.0193 25.2403 12.5448 25.8378C13.083 26.4489 13.2993 27.2587 13.1391 28.0564C12.9821 28.8334 13.0702 29.519 13.4002 30.0933C13.7302 30.666 14.2796 31.0849 15.0326 31.3396C15.8063 31.6007 16.399 32.1926 16.6601 32.9647C16.9132 33.7176 17.3329 34.2671 17.9048 34.5963C18.4783 34.9278 19.1607 35.0176 19.9408 34.8598C20.7418 34.6988 21.5492 34.9158 22.1611 35.4541C22.7474 35.9715 23.4025 36.2454 24.0561 36.2454C24.7097 36.2454 25.3649 35.9715 25.9496 35.4549C26.5631 34.9159 27.3721 34.6996 28.1714 34.8598C28.9548 35.0183 29.6356 34.9287 30.2075 34.597C30.7793 34.2671 31.1991 33.7176 31.4522 32.9655C31.5752 32.6011 31.7772 32.2815 32.032 32.0131C32.3177 31.7125 32.6709 31.4775 33.0797 31.3396C33.8294 31.0865 34.3788 30.6676 34.7121 30.0933C35.042 29.519 35.1301 28.8334 34.9731 28.0588C34.8129 27.2587 35.0292 26.4489 35.5674 25.837C36.093 25.2403 36.3589 24.6035 36.3589 23.9427Z" fill="#5F5166"/>
<path d="M33.0798 31.3396C33.8295 31.0865 34.3789 30.6676 34.7122 30.0933C35.0421 29.519 35.1302 28.8334 34.9732 28.0589C34.813 27.2587 35.0293 26.449 35.5676 25.837C36.093 25.2403 36.3589 24.6035 36.3589 23.9427C36.3589 23.2811 36.093 22.6436 35.5676 22.0477C35.0293 21.4365 34.813 20.6268 34.9732 19.8291C35.1302 19.0521 35.0421 18.3665 34.7105 17.7898C34.3789 17.2179 33.8295 16.799 33.0798 16.5459C32.3061 16.2848 31.7134 15.6929 31.4522 14.9208C31.1991 14.1678 30.7794 13.6184 30.2075 13.2892C29.6356 12.956 28.9516 12.8679 28.1715 13.0257C27.377 13.1811 26.5632 12.9697 25.9496 12.4306C24.777 11.3957 23.3353 11.3966 22.1627 12.4298C21.5524 12.968 20.7514 13.1859 19.9408 13.0257C19.1591 12.8687 18.4767 12.9584 17.9048 13.2884C17.3329 13.6184 16.9132 14.1678 16.6601 14.9199C16.5222 15.3285 16.2868 15.6813 15.9856 15.9667L32.0321 32.0132C32.3178 31.7125 32.671 31.4776 33.0798 31.3396Z" fill="#45354D"/>
<path d="M24.0562 16.5607C21.9968 16.5607 20.1364 17.4122 18.7962 18.7768C17.4874 20.1094 16.6746 21.9312 16.6746 23.9423C16.6746 28.0127 19.9857 31.3239 24.0562 31.3239C26.0673 31.3239 27.889 30.5111 29.2217 29.2023C30.5863 27.8621 31.4378 26.0016 31.4378 23.9423C31.4378 19.8718 28.1267 16.5607 24.0562 16.5607Z" fill="#FF7F40"/>
<path d="M31.4377 23.9423C31.4377 19.8718 28.1266 16.5607 24.0561 16.5607C21.9968 16.5607 20.1363 17.4122 18.7961 18.7768L29.2216 29.2023C30.5862 27.8621 31.4377 26.0016 31.4377 23.9423Z" fill="#F25A3C"/>
<path d="M26.6466 22.5126L24.5889 24.5694L22.6257 26.5318L23.7855 27.6916L25.7487 25.7292L27.8063 23.6724L26.6466 22.5126Z" fill="#F25A3C"/>
<path d="M25.4867 21.3528L24.3269 20.193L22.2693 22.2498L20.3062 24.2122L21.4659 25.372L23.4291 23.4096L25.4867 21.3528Z" fill="#F25A3C"/>
<path d="M24.5857 24.5658L26.6426 22.5089L27.8023 23.6685L25.7453 25.7254L24.5857 24.5658Z" fill="#E63A3A"/>
<path d="M22.2666 22.2472L24.3235 20.1902L25.4832 21.3499L23.4262 23.4068L22.2666 22.2472Z" fill="#E63A3A"/>
<defs>
<filter id="filter0_b_1_114" x="-4" y="-4" width="56" height="56" filterUnits="userSpaceOnUse" color-interpolation-filters="sRGB">
<feFlood flood-opacity="0" result="BackgroundImageFix"/>
<feGaussianBlur in="BackgroundImageFix" stdDeviation="2"/>
<feComposite in2="SourceAlpha" operator="in" result="effect1_backgroundBlur_1_114"/>
<feBlend mode="normal" in="SourceGraphic" in2="effect1_backgroundBlur_1_114" result="shape"/>
</filter>
</defs>
</svg>
