<svg width="35" height="29" viewBox="0 0 35 29" fill="none" xmlns="http://www.w3.org/2000/svg">
<g filter="url(#filter0_d_1_950)">
<path d="M13.5538 13.4579V18.1933C13.5538 19.5034 12.487 20.561 11.1654 20.561C9.84371 20.561 8.77692 19.5034 8.77692 18.1933V13.4579C8.77692 13.0159 9.12717 12.6687 9.57307 12.6687H12.7577C13.2036 12.6687 13.5538 13.0159 13.5538 13.4579Z" fill="#57555C"/>
<path d="M7.98077 6.23108H7.18461C5.43313 6.23108 4 7.67968 4 9.45031C4 11.2208 5.43313 12.6695 7.18461 12.6695H7.98077C8.42666 12.6695 8.77692 12.3154 8.77692 11.8647V7.03589C8.77692 6.58514 8.42666 6.23108 7.98077 6.23108Z" fill="#7A7780"/>
<path d="M8.77692 9.5542V11.8907C8.77692 12.3268 8.42666 12.6696 7.98077 12.6696H7.18461C5.43313 12.6696 4 11.2676 4 9.5542H8.77692Z" fill="#57555C"/>
<path d="M30.2108 11.008H27.8431C27.4069 11.008 27.0539 10.6829 27.0539 10.2811C27.0539 9.87933 27.4069 9.5542 27.8431 9.5542H30.2108C30.647 9.5542 31 9.87933 31 10.2811C31 10.6829 30.647 11.008 30.2108 11.008Z" fill="#1DE8F1"/>
<path d="M28.009 15.5559L26.4512 13.9982C26.147 13.694 26.147 13.2011 26.4512 12.8969C26.7555 12.5926 27.2484 12.5926 27.5526 12.8969L29.1103 14.4545C29.4145 14.7588 29.4145 15.2517 29.1103 15.5559C28.806 15.8601 28.3132 15.8601 28.009 15.5559Z" fill="#1BD9DE"/>
<path d="M26.4512 7.66404C26.147 7.35982 26.147 6.86692 26.4512 6.5627L28.009 5.00502C28.3132 4.7008 28.8061 4.7008 29.1103 5.00502C29.4145 5.30923 29.4145 5.80214 29.1103 6.10635L27.5526 7.66404C27.2483 7.9683 26.7555 7.9683 26.4512 7.66404Z" fill="#1DE8F1"/>
<path d="M15.0077 5.57301V12.9772L13.4292 14.3307H9.48308C8.45703 14.3307 7.57309 13.6619 7.2575 12.7384C7.16279 12.4836 7.11539 12.2288 7.11539 11.9422V7.16531C7.11539 5.84365 8.1729 4.77686 9.48308 4.77686H13.4292L15.0077 5.57301Z" fill="#FF507E"/>
<path d="M15.0077 9.5542V12.9776L13.4292 14.3311H9.48308C8.45703 14.3311 7.57309 13.6623 7.2575 12.7388C7.16279 12.484 7.11539 12.2293 7.11539 11.9427V9.5542H15.0077Z" fill="#F40F78"/>
<path d="M23.1076 1.62433V17.4833C23.1076 17.8005 22.9187 18.0859 22.6195 18.2128C22.336 18.3397 21.9895 18.2762 21.7691 18.0383L20.8399 17.1185C19.5486 15.8181 16.1679 14.3115 14.3412 14.3115H13.5538V4.79612H14.3412C16.1679 4.79612 19.5486 3.28952 20.8399 1.98903L21.7691 1.06916C21.9895 0.831329 22.3202 0.767841 22.6195 0.894712C22.9187 1.02158 23.1076 1.30715 23.1076 1.62433Z" fill="#E1E4FB"/>
<path d="M23.1076 9.5542V17.4837C23.1076 17.8009 22.9187 18.0864 22.6195 18.2132C22.336 18.3401 21.9895 18.2767 21.7691 18.0387L20.8399 17.1189C19.5486 15.8185 16.1679 14.3119 14.3412 14.3119H13.5538V9.5542H23.1076Z" fill="#C5C9F7"/>
<path d="M24.7692 1.575V17.325C24.7692 18.1912 24.0215 18.9 23.1077 18.9C22.1939 18.9 21.4462 18.1912 21.4462 17.325V1.575C21.4462 0.708749 22.1939 0 23.1077 0C24.0215 0 24.7692 0.708749 24.7692 1.575Z" fill="#FF507E"/>
<path d="M24.7692 9.5542V17.3427C24.7692 18.1994 24.0215 18.9003 23.1077 18.9003C22.1939 18.9003 21.4462 18.1994 21.4462 17.3427V9.5542H24.7692Z" fill="#F40F78"/>
<path d="M27.8431 11.008H30.2108C30.647 11.008 31 10.7293 31 10.3849H27.0539C27.0539 10.7293 27.4069 11.008 27.8431 11.008Z" fill="#1BD9DE"/>
</g>
<defs>
<filter id="filter0_d_1_950" x="0" y="0" width="35" height="28.561" filterUnits="userSpaceOnUse" color-interpolation-filters="sRGB">
<feFlood flood-opacity="0" result="BackgroundImageFix"/>
<feColorMatrix in="SourceAlpha" type="matrix" values="0 0 0 0 0 0 0 0 0 0 0 0 0 0 0 0 0 0 127 0" result="hardAlpha"/>
<feOffset dy="4"/>
<feGaussianBlur stdDeviation="2"/>
<feComposite in2="hardAlpha" operator="out"/>
<feColorMatrix type="matrix" values="0 0 0 0 0 0 0 0 0 0 0 0 0 0 0 0 0 0 0.25 0"/>
<feBlend mode="normal" in2="BackgroundImageFix" result="effect1_dropShadow_1_950"/>
<feBlend mode="normal" in="SourceGraphic" in2="effect1_dropShadow_1_950" result="shape"/>
</filter>
</defs>
</svg>
